<?xml version="1.0" encoding="iso-8859-1"?>
<!-- Generator: Adobe Illustrator 19.0.0, SVG Export Plug-In . SVG Version: 6.00 Build 0)  -->
<svg version="1.1" id="Layer_1" xmlns="http://www.w3.org/2000/svg" xmlns:xlink="http://www.w3.org/1999/xlink" x="0px" y="0px"
	 viewBox="0 0 496 496" style="enable-background:new 0 0 496 496;" xml:space="preserve">
<g>
	<g>
		<g>
			<path d="M134.328,212.112C143.92,219.776,155.96,224,168.232,224H184v8c0,13.232,10.768,24,24,24h104c13.232,0,24-10.768,24-24
				v-40h8c13.232,0,24-10.768,24-24c0-6.168-2.408-11.744-6.24-16c3.84-4.256,6.24-9.832,6.24-16c0-6.168-2.408-11.744-6.24-16
				c3.84-4.256,6.24-9.832,6.24-16c0-6.168-2.408-11.744-6.24-16c3.84-4.256,6.24-9.832,6.24-16c0-13.232-10.768-24-24-24h-8V24
				c0-13.232-10.768-24-24-24H208c-13.232,0-24,10.768-24,24v16h-13.072c-8.384,0-16.776,1.976-24.28,5.728L110.112,64H0v16h113.888
				L153.8,60.04c5.296-2.64,11.216-4.04,17.128-4.04H184v118.776l36.584,6.104C227.2,181.976,232,187.64,232,194.344
				c0,7.528-6.128,13.656-13.656,13.656h-50.112c-8.656,0-17.152-2.976-23.912-8.392L114.808,176H0v16h109.192L134.328,212.112z
				 M336,64h8c4.416,0,8,3.584,8,8s-3.584,8-8,8h-8V64z M336,96h8c4.416,0,8,3.584,8,8s-3.584,8-8,8h-8V96z M336,128h8
				c4.416,0,8,3.584,8,8s-3.584,8-8,8h-8V128z M336,160h8c4.416,0,8,3.584,8,8s-3.584,8-8,8h-8V160z M304,16h8c4.416,0,8,3.584,8,8
				v208c0,4.416-3.584,8-8,8h-8V16z M200,224h18.344C234.696,224,248,210.696,248,194.344c0-14.552-10.424-26.848-24.784-29.248
				L200,161.224V24c0-4.416,3.584-8,8-8h80v224h-80c-4.416,0-8-3.584-8-8V224z"/>
			<path d="M272,80c0-4.072-0.832-8.152-2.424-12c1.592-3.848,2.424-7.928,2.424-12c0-17.648-14.352-32-32-32s-32,14.352-32,32
				c0,4.072,0.824,8.152,2.424,12c-1.6,3.848-2.424,7.928-2.424,12c0,17.648,14.352,32,32,32S272,97.648,272,80z M253.76,72.032
				C255.248,74.576,256,77.256,256,80c0,8.816-7.184,16-16,16c-8.824,0-16-7.184-16-16c0-2.744,0.752-5.424,2.24-7.968L228.584,68
				l-2.344-4.032C224.752,61.424,224,58.744,224,56c0-8.816,7.176-16,16-16c8.816,0,16,7.184,16,16c0,2.744-0.752,5.424-2.24,7.968
				L251.416,68L253.76,72.032z"/>
			<path d="M278.192,312h49.568c8.656,0,17.152,2.976,23.912,8.392L381.192,344H496v-16H386.808l-25.136-20.112
				C352.08,300.224,340.04,296,327.768,296H320v-24h-88v8c0,17.648-14.352,32-32,32s-32-14.352-32-32v-8H80v80h32v144h176v-16
				h37.072c8.384,0,16.776-1.976,24.28-5.728L385.888,456H496v-16H382.112L342.2,459.96c-5.296,2.64-11.216,4.04-17.128,4.04H288
				V359.304l38.264,8.504l3.472-15.624l-54.624-12.136C268.568,338.6,264,332.904,264,326.192C264,318.368,270.368,312,278.192,312z
				 M272,480H128v-80h144V480z M272,368v16H128v-16H272z M262.528,352H128v-16H96v-48h56.664c3.816,22.672,23.592,40,47.336,40
				s43.512-17.328,47.336-40H304v8h-25.808C261.544,296,248,309.544,248,326.192C248,337.072,253.672,346.672,262.528,352z"/>
		</g>
	</g>
</g>
<g>
</g>
<g>
</g>
<g>
</g>
<g>
</g>
<g>
</g>
<g>
</g>
<g>
</g>
<g>
</g>
<g>
</g>
<g>
</g>
<g>
</g>
<g>
</g>
<g>
</g>
<g>
</g>
<g>
</g>
</svg>
