<?xml version="1.0" encoding="iso-8859-1"?>
<!-- Generator: Adobe Illustrator 18.0.0, SVG Export Plug-In . SVG Version: 6.00 Build 0)  -->
<!DOCTYPE svg PUBLIC "-//W3C//DTD SVG 1.1//EN" "http://www.w3.org/Graphics/SVG/1.1/DTD/svg11.dtd">
<svg version="1.1" id="Capa_1" xmlns="http://www.w3.org/2000/svg" xmlns:xlink="http://www.w3.org/1999/xlink" x="0px" y="0px"
	 viewBox="0 0 400.01 400.01" style="enable-background:new 0 0 400.01 400.01;" xml:space="preserve">
<path d="M364.95,182.642h-38.708c-23.579,0-44.049-16.78-48.675-39.898c-0.019-0.093-0.04-0.187-0.062-0.279L250.376,32.335
	c-5.535-22.471-27.597-36.24-50.229-31.35l-0.946,0.205c-11.162,2.407-20.695,9.03-26.842,18.65
	c-6.146,9.618-8.151,21.049-5.646,32.187l18.417,81.881H66.705c-10.205,0-19.785,3.972-26.959,11.17
	c-7.364,7.341-11.335,17.125-11.181,27.549c0.197,13.29,7.465,24.985,18.238,31.665c-9.678,6.924-16,18.253-16,31.034
	c0,17.066,11.269,31.551,26.757,36.403c-6.857,6.898-11.099,16.398-11.099,26.87c0,18.804,13.68,34.474,31.611,37.578
	c-6.196,6.784-9.979,15.806-9.979,25.695c0,21.029,17.108,38.137,38.137,38.137h32.187c55.814,0,111.969-4.991,166.908-14.833
	h50.707c3.59,0,6.5-2.91,6.5-6.5s-2.91-6.5-6.5-6.5h-51.286c-0.386,0-0.771,0.034-1.15,0.103
	c-54.365,9.775-109.939,14.731-165.179,14.731h-32.187c-13.86,0-25.137-11.276-25.137-25.137s11.276-25.137,25.137-25.137
	c3.59,0,6.5-2.91,6.5-6.5s-2.91-6.5-6.5-6.5H84.597c-13.86,0-25.137-11.276-25.137-25.137s11.276-25.137,25.137-25.137
	c3.59,0,6.5-2.91,6.5-6.5s-2.91-6.5-6.5-6.5H68.939c-13.86,0-25.137-11.276-25.137-25.137s11.276-25.137,25.137-25.137h17.672
	c3.59,0,6.5-2.91,6.5-6.5s-2.91-6.5-6.5-6.5c0,0-18.484,0.018-18.889,0.031c-0.063-0.011-0.122-0.024-0.199-0.024
	c-14.112,0-25.758-11.108-25.96-24.762c-0.102-6.872,2.512-13.317,7.375-18.165c4.732-4.748,11.042-7.363,17.767-7.363h146.303
	c3.59,0,6.5-2.91,6.5-6.5s-2.91-6.5-6.5-6.5h-14.554l-19.059-84.734c-1.738-7.729-0.347-15.661,3.917-22.334
	c4.266-6.675,10.881-11.271,18.629-12.942l0.949-0.205c15.708-3.396,31.021,6.16,34.862,21.752l27.094,109.994
	c5.893,29.099,31.689,50.204,61.394,50.204h38.708c3.59,0,6.5-2.91,6.5-6.5S368.54,182.642,364.95,182.642z"/>
<g>
</g>
<g>
</g>
<g>
</g>
<g>
</g>
<g>
</g>
<g>
</g>
<g>
</g>
<g>
</g>
<g>
</g>
<g>
</g>
<g>
</g>
<g>
</g>
<g>
</g>
<g>
</g>
<g>
</g>
</svg>
