<?xml version="1.0" encoding="iso-8859-1"?>
<!-- Generator: Adobe Illustrator 19.0.0, SVG Export Plug-In . SVG Version: 6.00 Build 0)  -->
<svg version="1.1" id="Layer_1" xmlns="http://www.w3.org/2000/svg" xmlns:xlink="http://www.w3.org/1999/xlink" x="0px" y="0px"
	 viewBox="0 0 482.462 482.462" style="enable-background:new 0 0 482.462 482.462;" xml:space="preserve">
<g>
	<g>
		<path d="M49.413,130.043C22.163,130.043,0,152.207,0,179.457s22.163,49.413,49.413,49.413s49.413-22.163,49.413-49.413
			S76.663,130.043,49.413,130.043z M49.413,209.178c-16.385,0-29.721-13.337-29.721-29.721c0-16.385,13.337-29.721,29.721-29.721
			c16.385,0,29.721,13.337,29.721,29.721C79.135,195.841,65.798,209.178,49.413,209.178z"/>
	</g>
</g>
<g>
	<g>
		<rect x="128.345" y="169.61" width="354.117" height="19.692"/>
	</g>
</g>
<g>
	<g>
		<path d="M49.413,6.476C22.163,6.476,0,28.639,0,55.889s22.163,49.414,49.413,49.414s49.413-22.164,49.413-49.414
			S76.663,6.476,49.413,6.476z M49.413,85.611c-16.385,0-29.721-13.337-29.721-29.721c0-16.385,13.337-29.721,29.721-29.721
			c16.385,0,29.721,13.337,29.721,29.721C79.135,72.274,65.798,85.611,49.413,85.611z"/>
	</g>
</g>
<g>
	<g>
		<rect x="128.345" y="46.041" width="354.117" height="19.692"/>
	</g>
</g>
<g>
	<g>
		<path d="M49.413,253.601C22.163,253.601,0,275.764,0,303.014s22.163,49.413,49.413,49.413s49.413-22.163,49.413-49.413
			S76.663,253.601,49.413,253.601z M49.413,332.736c-16.385,0-29.721-13.337-29.721-29.721c0-16.385,13.337-29.721,29.721-29.721
			c16.385,0,29.721,13.337,29.721,29.721C79.135,319.399,65.798,332.736,49.413,332.736z"/>
	</g>
</g>
<g>
	<g>
		<rect x="128.345" y="293.12" width="354.117" height="19.692"/>
	</g>
</g>
<g>
	<g>
		<path d="M49.413,377.159C22.163,377.159,0,399.322,0,426.572s22.163,49.413,49.413,49.413s49.413-22.163,49.413-49.413
			S76.663,377.159,49.413,377.159z M49.413,456.293c-16.385,0-29.721-13.337-29.721-29.721c0-16.385,13.337-29.721,29.721-29.721
			c16.385,0,29.721,13.337,29.721,29.721C79.135,442.957,65.798,456.293,49.413,456.293z"/>
	</g>
</g>
<g>
	<g>
		<rect x="128.345" y="416.729" width="354.117" height="19.692"/>
	</g>
</g>
<g>
</g>
<g>
</g>
<g>
</g>
<g>
</g>
<g>
</g>
<g>
</g>
<g>
</g>
<g>
</g>
<g>
</g>
<g>
</g>
<g>
</g>
<g>
</g>
<g>
</g>
<g>
</g>
<g>
</g>
</svg>
